<?xml version="1.0" encoding="UTF-8" standalone="no"?>
<!-- Created with Inkscape (http://www.inkscape.org/) -->

<svg
   width="190.00037mm"
   height="205.14755mm"
   viewBox="0 0 190.00037 205.14755"
   version="1.1"
   id="svg1"
   xml:space="preserve"
   inkscape:version="1.4.4 (dcaf3e7, 2026-05-05)"
   sodipodi:docname="inomeado.svg"
   inkscape:export-filename="logo.svg"
   inkscape:export-xdpi="96"
   inkscape:export-ydpi="96"
   xmlns:inkscape="http://www.inkscape.org/namespaces/inkscape"
   xmlns:sodipodi="http://sodipodi.sourceforge.net/DTD/sodipodi-0.dtd"
   xmlns:xlink="http://www.w3.org/1999/xlink"
   xmlns="http://www.w3.org/2000/svg"
   xmlns:svg="http://www.w3.org/2000/svg"><sodipodi:namedview
     id="namedview1"
     pagecolor="#ffffff"
     bordercolor="#000000"
     borderopacity="0.25"
     inkscape:showpageshadow="2"
     inkscape:pageopacity="0.0"
     inkscape:pagecheckerboard="0"
     inkscape:deskcolor="#d1d1d1"
     inkscape:document-units="mm"
     showguides="true"
     inkscape:zoom="0.71891835"
     inkscape:cx="365.13187"
     inkscape:cy="536.22223"
     inkscape:window-width="1920"
     inkscape:window-height="1009"
     inkscape:window-x="-8"
     inkscape:window-y="-8"
     inkscape:window-maximized="1"
     inkscape:current-layer="layer1"
     inkscape:export-bgcolor="#ffffff00"><inkscape:page
       x="0"
       y="0"
       width="190.00037"
       height="205.14755"
       id="page2"
       margin="0"
       bleed="0" /></sodipodi:namedview><defs
     id="defs1"><linearGradient
       id="linearGradient16"
       inkscape:collect="always"><stop
         style="stop-color:#d7d6fe;stop-opacity:1;"
         offset="0"
         id="stop16" /><stop
         style="stop-color:#4025eb;stop-opacity:0.40000001"
         offset="1"
         id="stop17" /></linearGradient><linearGradient
       id="linearGradient2"
       inkscape:collect="always"><stop
         style="stop-color:#000000;stop-opacity:0;"
         offset="0"
         id="stop2" /><stop
         style="stop-color:#000000;stop-opacity:0;"
         offset="1"
         id="stop3" /></linearGradient><linearGradient
       id="linearGradient43"
       inkscape:collect="always"><stop
         style="stop-color:#ffffff;stop-opacity:0;"
         offset="0"
         id="stop44" /><stop
         style="stop-color:#ffffff;stop-opacity:0;"
         offset="1"
         id="stop45" /></linearGradient><linearGradient
       id="linearGradient41"
       inkscape:collect="always"><stop
         style="stop-color:#8b5cf6;stop-opacity:1;"
         offset="0"
         id="stop42" /><stop
         style="stop-color:#fcfdfe;stop-opacity:1;"
         offset="1"
         id="stop43" /></linearGradient><linearGradient
       id="linearGradient39"
       inkscape:collect="always"><stop
         style="stop-color:#ffffff;stop-opacity:1;"
         offset="0"
         id="stop40" /><stop
         style="stop-color:#ffffff;stop-opacity:0;"
         offset="1"
         id="stop41" /></linearGradient><linearGradient
       id="linearGradient31"
       inkscape:collect="always"><stop
         style="stop-color:#ffcdff;stop-opacity:1;"
         offset="0"
         id="stop32" /><stop
         style="stop-color:#fffdfe;stop-opacity:1;"
         offset="1"
         id="stop33" /></linearGradient><radialGradient
       inkscape:collect="always"
       xlink:href="#linearGradient31"
       id="radialGradient33"
       cx="396.47192"
       cy="561.19171"
       fx="396.47192"
       fy="561.19171"
       r="89.598076"
       gradientTransform="matrix(0.70640906,-0.70780382,2.0182023,2.0142255,-1016.1891,-288.5403)"
       gradientUnits="userSpaceOnUse" /><radialGradient
       inkscape:collect="always"
       xlink:href="#linearGradient39"
       id="radialGradient41"
       cx="105"
       cy="148.5"
       fx="105"
       fy="148.5"
       r="19.999996"
       gradientUnits="userSpaceOnUse"
       gradientTransform="matrix(0.87379199,-0.48629987,0.53160235,0.95519227,-65.691108,57.715436)" /><radialGradient
       inkscape:collect="always"
       xlink:href="#linearGradient41"
       id="radialGradient43"
       cx="105"
       cy="148.5"
       fx="105"
       fy="148.5"
       r="27.5"
       gradientUnits="userSpaceOnUse"
       gradientTransform="matrix(0.74910297,-0.54547953,1.1425368,1.5690373,-143.32253,-27.226697)" /><radialGradient
       inkscape:collect="always"
       xlink:href="#linearGradient43"
       id="radialGradient45"
       cx="396.48068"
       cy="561.20203"
       fx="396.48068"
       fy="561.20203"
       r="91.097923"
       gradientTransform="matrix(1,0,0,1.0050294,0,-2.8225135)"
       gradientUnits="userSpaceOnUse" /><radialGradient
       inkscape:collect="always"
       xlink:href="#linearGradient2"
       id="radialGradient3"
       cx="105"
       cy="148.5"
       fx="105"
       fy="148.5"
       r="27.499998"
       gradientUnits="userSpaceOnUse" /><linearGradient
       inkscape:collect="always"
       xlink:href="#linearGradient16"
       id="linearGradient17"
       x1="77.521805"
       y1="114.44966"
       x2="174.61867"
       y2="114.97013"
       gradientUnits="userSpaceOnUse" /></defs><g
     inkscape:label="Camada 1"
     inkscape:groupmode="layer"
     id="layer1"
     transform="translate(-9.9998179,-35.516778)"><rect
       style="display:inline;opacity:1;fill:#f3f4f6;fill-opacity:1;stroke:#bfc5cc;stroke-width:3.011;stroke-linejoin:round;stroke-dasharray:none;stroke-opacity:1"
       id="rect208"
       width="186.98936"
       height="202.13655"
       x="11.505318"
       y="37.022274"
       ry="19.848034" /><circle
       style="fill:#000000;fill-opacity:0;stroke:#44494d;stroke-width:3.175;stroke-dasharray:none;stroke-opacity:1"
       id="path1"
       cx="105"
       cy="148.5"
       r="73.322647" /><path
       style="fill:#2563eb;fill-opacity:0.4;stroke:#44494d;stroke-width:0;stroke-dasharray:none;stroke-opacity:1"
       d="M 96.728911,219.63864 C 83.3566,217.87938 71.335822,212.69982 60.635062,204.0864 57.50552,201.56732 51.676074,195.5595 49.108767,192.20741 42.186148,183.16867 37.001508,171.68912 34.893803,160.73343 c -0.82758,-4.3017 -1.323317,-8.33729 -1.323317,-10.77258 v -1.49603 h 21.959983 21.959982 l 0.186629,1.55016 c 0.653749,5.43014 3.309816,11.08515 7.206973,15.34431 3.278706,3.58327 6.943775,6.06237 11.178063,7.56101 4.084674,1.44568 9.560464,1.86755 13.878114,1.06922 1.13974,-0.21074 2.09547,-0.35841 2.12384,-0.32816 0.0284,0.0302 3.67776,9.59347 8.10977,21.25161 l 8.0582,21.19662 -2.37495,0.75694 c -3.06553,0.97704 -7.13107,1.93816 -10.5724,2.49938 -3.76419,0.61388 -14.73683,0.77515 -18.555779,0.27273 z"
       id="path21" /><path
       style="mix-blend-mode:normal;fill:#2563eb;fill-opacity:0.4;stroke:url(#linearGradient17);stroke-width:0;stroke-dasharray:none"
       d="m 132.03993,148.81609 c -0.38405,-4.01141 -1.10122,-6.82113 -2.53266,-9.92242 -2.6407,-5.72121 -6.68577,-10.14767 -11.98105,-13.11067 -2.36933,-1.32577 -6.77646,-2.77536 -9.59937,-3.15744 -4.20379,-0.56896 -9.788988,0.0597 -13.353444,1.50315 -0.958421,0.3881 -1.000591,0.38109 -1.225029,-0.20395 -0.127845,-0.33325 -3.787536,-9.80912 -8.132652,-21.05751 -4.345115,-11.248376 -7.806128,-20.548206 -7.69114,-20.666278 0.343088,-0.352298 6.009876,-2.27209 8.836531,-2.993637 17.270474,-4.40855 34.868884,-2.411385 50.552724,5.737014 18.4848,9.603598 32.05238,26.775771 37.28156,47.186361 1.41861,5.53716 2.47705,13.56605 2.50116,18.97272 l 0.004,0.87458 h -22.17892 -22.1789 z"
       id="path22" /><path
       style="fill:#ffffff;fill-opacity:1;stroke:#d7d6fe;stroke-width:0;stroke-dasharray:none;stroke-opacity:1"
       d="m 235.5651,466.57998 c -38.40842,-22.15541 -70.45873,-40.65432 -71.22291,-41.10869 -1.09475,-0.65091 0.17285,-3.19773 5.9769,-12.00856 10.52726,-15.9809 22.03445,-30.06581 35.67648,-43.66834 14.02607,-13.98546 23.98448,-22.11721 41.43165,-33.83192 11.86118,-7.96406 41.12359,-23.76411 41.99641,-22.67569 0.20826,0.25969 13.98657,34.99548 30.61849,77.19065 26.73075,67.8159 30.05021,76.83263 28.6056,77.70206 -16.12108,9.70242 -28.87592,20.9057 -36.49321,32.054 -2.55432,3.73837 -5.11934,6.75924 -5.70006,6.71304 -0.58072,-0.0462 -32.48093,-18.21114 -70.88935,-40.36655 z"
       id="path23"
       transform="scale(0.26458333)" /><path
       style="fill:#60a5fa;fill-opacity:1;stroke:#ffffff;stroke-width:0;stroke-dasharray:none;stroke-opacity:1"
       d="M 147.43611,174.06283 C 137.01684,168.1046 128.4599,163.2034 128.42069,163.1713 c -0.0392,-0.0321 0.40474,-0.9828 0.98654,-2.11264 1.20256,-2.33532 2.18836,-5.24537 2.6273,-7.75567 l 0.29992,-1.71533 h 22.05289 22.05288 v 1.24389 c 0,4.88312 -1.93676,14.07496 -4.3379,20.58767 -0.99454,2.69753 -5.23016,11.4793 -5.53593,11.47773 -0.10238,-5.3e-4 -8.71101,-4.87588 -19.13028,-10.83412 z"
       id="path24" /><path
       style="fill:#ffffff;fill-opacity:1;stroke:#ffffff;stroke-width:0;stroke-dasharray:none;stroke-opacity:0"
       d="m 461.45732,739.17873 c -16.40984,-41.63039 -30.07162,-76.59234 -30.3595,-77.69321 -0.3449,-1.31887 -0.0472,-2.00159 0.87277,-2.00159 2.25301,0 17.01282,-7.45193 23.67486,-11.95295 7.03888,-4.75563 17.04885,-13.99669 22.32936,-20.61414 l 3.61904,-4.53533 71.59557,41.11831 c 39.37756,22.61506 71.82089,41.34362 72.09628,41.61901 0.68705,0.68705 -8.36943,13.87908 -17.28785,25.18216 -8.9828,11.38469 -30.1038,32.62251 -41.46132,41.69066 -18.91501,15.10223 -43.08701,29.5535 -64.2951,38.43889 -5.85165,2.45163 -10.70882,4.45352 -10.7937,4.44866 -0.0849,-0.005 -13.58057,-34.07008 -29.99041,-75.70047 z"
       id="path25"
       transform="scale(0.26458333)" /><path
       style="fill:#ffffff;fill-opacity:1;stroke:#ffffff;stroke-width:0;stroke-dasharray:none;stroke-opacity:0"
       d="m 126.28726,552.52065 c 2.40894,-42.33219 10.0933,-73.46978 26.71196,-108.23883 l 6.25112,-13.07839 3.3664,1.76734 c 12.59889,6.61432 140.31242,80.62507 140.31709,81.31458 0.003,0.47389 -1.51142,4.67866 -3.36586,9.34392 -3.86438,9.72177 -6.01602,19.51483 -6.99604,31.84209 l -0.6842,8.60624 H 208.75867 125.6296 Z"
       id="path26"
       transform="scale(0.26458333)" /><path
       style="fill:#60a5fa;fill-opacity:1;stroke:#ffffff;stroke-width:0;stroke-dasharray:none;stroke-opacity:0"
       d="m 126.28726,552.52065 c 2.41738,-42.48041 10.04218,-73.36332 26.73569,-108.28818 l 6.27485,-13.12774 4.69226,2.60921 c 27.33242,15.19867 140.40898,81.63729 140.41588,82.29266 0.005,0.47389 -1.26228,3.4492 -3.11672,8.11446 -3.86438,9.72177 -2.65769,19.35172 -6.50426,31.10441 l -2.89723,8.85213 H 208.75867 125.6296 Z"
       id="path27"
       sodipodi:nodetypes="sscsssscccs"
       transform="scale(0.26458333)" /><circle
       style="display:inline;fill:#000000;fill-opacity:0;stroke:url(#radialGradient41);stroke-width:2.43965;stroke-dasharray:none"
       id="path1-1-4"
       cx="105"
       cy="148.5"
       r="18.780172" /><path
       style="fill:#2362eb;fill-opacity:0.4;stroke:#ffffff;stroke-width:0;stroke-dasharray:none;stroke-opacity:0"
       d="m 100.58134,169.32336 c -13.142504,1.12667 -19.259952,-9.18194 -16.501758,-18.23865 l 0.733874,-2.40972 h 2.59569 2.595689 l 0.431771,1.68714 c 1.535166,5.99863 5.629471,10.51957 10.915054,12.05242 0.85307,0.24739 2.56813,0.44981 3.81124,0.44981 l 2.52043,0.39035 0.85124,2.19625 c 0.55723,1.43769 1.46919,3.48265 1.34389,3.63059 -0.38978,0.46019 -5.1353,-0.11498 -7.02006,0.0466 z"
       id="path50"
       sodipodi:nodetypes="sscccssscssss" /><path
       style="fill:#60a5fa;fill-opacity:1;stroke:#ffffff;stroke-width:0;stroke-dasharray:none;stroke-opacity:0"
       d="m 318.30887,563.09403 c -0.98664,-9.93961 4.66168,-35.90032 7.97104,-35.90032 1.1533,0 19.69097,10.55091 19.69097,11.26018 0,0.26575 -0.85686,2.93706 -1.90413,6.5373 -1.04727,3.60024 -0.25093,9.12218 -1.79953,12.44731 l -3.09202,6.6391 h -9.26563 c -6.6917,0 -11.51256,-0.0956 -11.6007,-0.98357 z"
       id="path51"
       sodipodi:nodetypes="ssssscss"
       transform="scale(0.26458333)" /><path
       style="fill:#ffffff;fill-opacity:1;stroke:#ffffff;stroke-width:0;stroke-dasharray:none;stroke-opacity:0"
       d="m 340.06945,525.75195 c -4.19247,-2.68619 -7.62267,-5.17182 -7.62267,-5.52362 0,-0.35179 1.57635,-2.78704 3.503,-5.41166 4.38556,-5.97433 14.63202,-15.42181 19.98067,-18.42266 l 4.05699,-2.27616 0.8759,2.27616 c 0.48175,1.25189 2.03072,4.87623 3.44216,8.05408 1.41143,3.17785 2.56624,6.35065 2.56624,7.05066 0,0.70002 -1.5158,2.20957 -3.36845,3.35458 -3.63595,2.24713 -14.33581,13.33479 -14.33581,14.85537 0,1.60948 -1.27808,1.05364 -9.09803,-3.95675 z"
       id="path52"
       transform="scale(0.26458333)" /><path
       style="fill:#2362eb;fill-opacity:0.4;stroke:#ffffff;stroke-width:0;stroke-dasharray:none;stroke-opacity:0"
       d="m 119.30855,150.32039 c 0.31836,-2.07586 -0.60863,-8.0229 -3.91746,-11.31367 -3.69034,-3.67018 -7.62907,-5.27226 -12.88952,-4.87531 -1.29242,0.0975 -2.05937,2.77755 -3.497049,1.5316 l -1.66763,-0.0771 -1.403577,-4.16435 c -1.071719,-3.17974 -1.688134,-2.68873 1.75006,-3.59656 8.403336,-2.21879 17.348376,0.19071 23.261496,6.26587 4.13949,4.25292 6.0891,8.60734 6.40329,14.30164 l 0.17629,3.19512 h -3.00632 l -5.54362,0.91083 z"
       id="path53"
       sodipodi:nodetypes="sssccscsscccs" /><path
       style="fill:#60a5fa;fill-opacity:1;stroke:#ffffff;stroke-width:0;stroke-dasharray:none;stroke-opacity:0"
       d="m 452.44237,597.87084 c -4.05723,-2.48211 -7.49389,-4.6159 -7.63703,-4.74174 -0.14314,-0.12585 -1.29994,-4.04941 0.13415,-6.61527 1.43409,-2.56587 1.92255,-7.12603 4.08161,-9.49349 l 4.17901,-4.58239 9.85889,-0.27931 9.8589,-0.27931 2.2259,7.4102 c 2.19585,7.31017 -12.60754,23.16186 -14.2583,23.12078 -0.58649,-0.0146 -4.38591,-2.05736 -8.44313,-4.53947 z"
       id="path54"
       sodipodi:nodetypes="sssscccsss"
       transform="scale(0.26458333)" /><path
       style="fill:#ffffff;fill-opacity:1;stroke:#ffffff;stroke-width:0;stroke-dasharray:none;stroke-opacity:0"
       d="m 419.08952,631.69806 c -0.46549,-1.21716 -1.99531,-5.03509 -3.39961,-8.48428 -2.55168,-6.26734 -2.60138,-7.99052 -0.23048,-7.99052 2.93775,0 13.91589,-6.50392 19.1365,-11.33728 l 5.64256,-5.22402 7.63317,4.7301 c 4.19823,2.60155 7.91404,5.01097 8.25734,5.35427 0.95952,0.95952 -9.38425,11.09749 -15.84631,15.53102 -5.58326,3.8306 -17.21957,9.63375 -19.31732,9.63375 -0.56623,0 -1.41037,-0.99587 -1.87585,-2.21304 z"
       id="path55"
       transform="scale(0.26458333)" /><circle
       style="display:inline;fill:url(#radialGradient3);fill-opacity:0;stroke:url(#radialGradient43);stroke-width:7.14208;stroke-dasharray:none"
       id="path1-1-4-1"
       cx="105"
       cy="148.5"
       r="23.928959" /><circle
       style="fill:#000000;fill-opacity:0;stroke:#44494d;stroke-width:3.4491;stroke-dasharray:none;stroke-opacity:1"
       id="path1-1"
       cx="105"
       cy="148.5"
       r="13.275449" /><circle
       style="display:inline;fill:#fffeff;fill-opacity:0;stroke:#fcfeff;stroke-width:2.56988;stroke-dasharray:none;stroke-opacity:1"
       id="path1-3"
       cx="105"
       cy="148.5"
       r="71.215057" /><path
       style="display:none;fill:url(#radialGradient33);stroke:url(#radialGradient45);stroke-width:3;stroke-dasharray:none"
       d="m 376.95519,649.59537 c -29.90022,-6.70271 -56.55208,-31.24817 -66.26728,-61.02989 -3.03333,-9.29862 -3.70929,-14.0298 -3.80187,-26.61015 -0.19342,-26.28133 8.03939,-46.10097 26.9371,-64.8483 18.76458,-18.61524 41.65257,-27.27783 68.16966,-25.80066 36.56086,2.03666 66.85121,24.78536 80.43304,60.40693 3.1805,8.34161 3.58345,11.45143 3.64829,28.15556 0.0608,15.67575 -0.43684,20.3869 -3.01221,28.51506 -8.73475,27.56791 -31.77305,50.47181 -59.50895,59.16183 -12.55657,3.93413 -33.98629,4.87673 -46.59778,2.04962 z m 35.46995,-13.93336 c 35.04823,-7.39115 60.46645,-38.6675 60.46645,-74.40217 0,-35.73466 -25.41822,-67.01101 -60.46645,-74.40216 -12.16132,-2.56464 -19.72682,-2.58938 -31.45737,-0.10289 -27.30391,5.78752 -49.6911,26.7932 -57.54123,53.99037 -3.03174,10.50363 -3.03174,30.52573 0,41.02937 5.7639,19.96931 19.7242,37.16392 37.91595,46.70028 16.77239,8.79231 32.78685,11.04551 51.08265,7.1872 z"
       id="path28"
       transform="scale(0.26458333)" /><text
       xml:space="preserve"
       style="font-style:normal;font-variant:normal;font-weight:normal;font-stretch:normal;font-size:27.1371px;font-family:MicrogrammaDBolExt;-inkscape-font-specification:MicrogrammaDBolExt;writing-mode:lr-tb;direction:ltr;fill:#2563eb;fill-opacity:1;stroke:#d7d6fe;stroke-width:0"
       x="17.228441"
       y="68.022194"
       id="text1"><tspan
         sodipodi:role="line"
         id="tspan1"
         style="font-style:normal;font-variant:normal;font-weight:normal;font-stretch:normal;font-family:MicrogrammaDBolExt;-inkscape-font-specification:MicrogrammaDBolExt;fill:#2563eb;fill-opacity:1;stroke-width:0"
         x="17.228441"
         y="68.022194">NOVAULT</tspan></text><text
       xml:space="preserve"
       style="font-style:normal;font-variant:normal;font-weight:normal;font-stretch:normal;font-size:10.3123px;font-family:Michroma;-inkscape-font-specification:Michroma;writing-mode:lr-tb;direction:ltr;fill:#2563eb;fill-opacity:1;stroke:#d7d6fe;stroke-width:0"
       x="146.5412"
       y="226.34428"
       id="text2"><tspan
         sodipodi:role="line"
         id="tspan2"
         style="font-style:normal;font-variant:normal;font-weight:normal;font-stretch:normal;font-family:Michroma;-inkscape-font-specification:Michroma;fill:#2563eb;fill-opacity:1;stroke-width:0"
         x="146.5412"
         y="226.34428">TM</tspan></text></g></svg>
